<svg version="1.1" id="logoHeader" xmlns="http://www.w3.org/2000/svg" xmlns:xlink="http://www.w3.org/1999/xlink" x="0px" y="0px" viewBox="-372.8 358.3 287.5 75.4" style="enable-background:new -372.8 358.3 287.5 75.4;" xml:space="preserve" width="120"  height="40" >
    <g fill="#000">
    	<polygon class="letter-k" points="-323.6,379.3 -342.8,379.3 -357.6,397 -357.6,358.3 -372.8,358.3 -372.8,432 -357.6,432 -357.6,414.3 -342.8,432 
    		-323.6,432 -347.3,405.6 	" fill="#000"></polygon>
    	<path class="letter-a" d="M-283.4,383.9c-3.5-3.6-9-5.8-14.8-5.8c-0.1,0-0.2,0-0.2,0c-7.9,0-14.9,2.6-19.7,7.4c-4.9,4.9-7.5,11.9-7.5,20.2
    		c0,8.7,2.6,15.8,7.6,20.8c4.8,4.7,11.5,7.2,19.4,7.2c0.1,0,0.2,0,0.3,0c5.2-0.1,11.4-2.3,15.2-6.4l0.2,4.8h14.3v-52.8h-14.5
    		L-283.4,383.9z M-297.1,419.5c-8.1,0-13.5-5.6-13.5-13.9c0-8.3,5.4-13.8,13.5-13.8c9.1,0,13.3,7.2,13.3,13.9
    		C-283.9,412.4-288,419.5-297.1,419.5z" fill="#000"></path>
    	<path class="letter-r" d="M-219.1,383.1c-3.1-3.1-8.6-5.2-13.9-5.2c-4.4,0-9.3,0.7-13.3,5.1l-0.6-3.8h-14V432h15.1v-27.8c0-10.3,7.8-11.4,11.2-11.4
    		c3.8,0,5.9,1.1,8.1,2.9l1.3,1.1l6.8-13.1L-219.1,383.1z" fill="#000"></path>
    	<path class="letter-a2" d="M-176.7,383.9c-3.5-3.6-9-5.8-14.8-5.8c-0.1,0-0.2,0-0.2,0c-7.9,0-14.9,2.6-19.7,7.4c-4.9,4.9-7.5,11.9-7.5,20.2
    		c0,8.7,2.6,15.8,7.6,20.8c4.8,4.7,11.5,7.2,19.4,7.2c0.1,0,0.2,0,0.3,0c5.2-0.1,11.4-2.3,15.2-6.4l0.4,4.8h14.1v-52.8h-14.5
    		L-176.7,383.9z M-190.4,419.5c-8.1,0-13.5-5.6-13.5-13.9c0-8.3,5.4-13.8,13.5-13.8c9.1,0,13.3,7.2,13.3,13.9
    		C-177.1,412.4-181.3,419.5-190.4,419.5z" fill="#000"></path>
    	<path class="letter-5" d="M-154.1,413.1c5,3.2,11.5,6,16.6,6c7.4,0,11.8-3.9,11.8-9.3c0-6.5-6.1-9.7-14.6-9.7h-13.8v-41.8h41v14.2h-24.6v13.3h6.1
    		c13.2,0,24,7.8,24,23c0,13.9-13.3,24.8-28.9,24.8c-5.5,0-11.5-1.2-17.6-3.8" fill="#000"></path>
    	<g fill="#000">
    		<path class="letter-reg" d="M-97.7,430c-1.4-1.4-2.1-3.1-2.1-5.2c0-2,0.7-3.8,2.1-5.2c1.4-1.4,3.2-2.1,5.2-2.1s3.8,0.7,5.2,2.1
    			c1.4,1.4,2.1,3.2,2.1,5.2s-0.7,3.7-2.1,5.2c-1.4,1.4-3.2,2.1-5.2,2.1S-96.3,431.4-97.7,430z M-96.9,420.5
    			c-1.2,1.2-1.8,2.7-1.8,4.4s0.6,3.2,1.8,4.4c1.2,1.2,2.7,1.8,4.4,1.8s3.2-0.6,4.4-1.8c1.2-1.2,1.8-2.7,1.8-4.4s-0.6-3.2-1.8-4.4
    			c-1.2-1.2-2.7-1.8-4.4-1.8S-95.7,419.3-96.9,420.5z M-95.4,429v-8.3h2.9c0.9,0,1.6,0.2,2.2,0.6c0.6,0.4,0.9,1,0.9,1.8
    			c0,1.2-0.6,2-1.9,2.2l2.2,3.7h-1.8l-1.9-3.5h-1.1v3.5H-95.4z M-93.9,424.3h1.2c1.2,0,1.8-0.4,1.8-1.2c0-0.8-0.5-1.1-1.6-1.1h-1.4
    			V424.3z" fill="#000"></path>
    	</g>
    </g>
    </svg>